<svg xmlns="http://www.w3.org/2000/svg"  viewBox="0 0 24 24" width="24px" height="24px"><path d="M2.269,15.625c-1.675-2.13-1.675-5.121,0-7.251C4.235,5.875,7.479,3,12,3s7.765,2.875,9.731,5.375	c1.675,2.13,1.675,5.121,0,7.251C19.765,18.125,16.521,21,12,21S4.235,18.125,2.269,15.625z" opacity=".35"/><path d="M12,6c-3.314,0-6,2.686-6,6s2.686,6,6,6s6-2.686,6-6S15.314,6,12,6z M13,13c-1.105,0-2-0.895-2-2s0.895-2,2-2s2,0.895,2,2	S14.105,13,13,13z"/><path d="M21,22c-0.256,0-0.512-0.098-0.707-0.293l-18-18c-0.391-0.391-0.391-1.023,0-1.414s1.023-0.391,1.414,0l18,18	c0.391,0.391,0.391,1.023,0,1.414C21.512,21.902,21.256,22,21,22z"/></svg>